<svg width="15" height="15" viewBox="0 0 15 15" fill="none" xmlns="http://www.w3.org/2000/svg">
<path d="M5.46875 6.25C5.46875 5.71128 5.68276 5.19462 6.06369 4.81369C6.44462 4.43276 6.96128 4.21875 7.5 4.21875C8.03872 4.21875 8.55538 4.43276 8.93631 4.81369C9.31724 5.19462 9.53125 5.71128 9.53125 6.25C9.53125 6.78872 9.31724 7.30538 8.93631 7.68631C8.55538 8.06724 8.03872 8.28125 7.5 8.28125C6.96128 8.28125 6.44462 8.06724 6.06369 7.68631C5.68276 7.30538 5.46875 6.78872 5.46875 6.25Z" fill="#EA6301"/>
<path fill-rule="evenodd" clip-rule="evenodd" d="M2.35874 5.54812C2.4627 4.29172 3.03513 3.12029 3.96246 2.26624C4.8898 1.41219 6.10429 0.93791 7.36499 0.9375H7.63498C8.89568 0.93791 10.1102 1.41219 11.0375 2.26624C11.9648 3.12029 12.5373 4.29172 12.6412 5.54812C12.7566 6.95088 12.3235 8.34372 11.4331 9.43375L8.43749 13.0975C8.32394 13.2365 8.18093 13.3485 8.01879 13.4254C7.85665 13.5023 7.67944 13.5422 7.49999 13.5422C7.32053 13.5422 7.14332 13.5023 6.98118 13.4254C6.81904 13.3485 6.67603 13.2365 6.56249 13.0975L3.56749 9.43375C2.67684 8.34381 2.24355 6.95096 2.35874 5.54812ZM7.49999 3.28125C6.71262 3.28125 5.95751 3.59403 5.40076 4.15078C4.84401 4.70753 4.53124 5.46264 4.53124 6.25C4.53124 7.03736 4.84401 7.79247 5.40076 8.34922C5.95751 8.90597 6.71262 9.21875 7.49999 9.21875C8.28735 9.21875 9.04246 8.90597 9.59921 8.34922C10.156 7.79247 10.4687 7.03736 10.4687 6.25C10.4687 5.46264 10.156 4.70753 9.59921 4.15078C9.04246 3.59403 8.28735 3.28125 7.49999 3.28125Z" fill="#EA6301"/>
</svg>
