<svg width="15" height="15" viewBox="0 0 15 15" fill="none" xmlns="http://www.w3.org/2000/svg">
<path d="M11.5062 13.75H11.7375C11.9312 13.7438 12.1125 13.6438 12.225 13.4813L13.6437 11.4375C13.7375 11.3 13.775 11.1313 13.7437 10.9625C13.7284 10.8802 13.6967 10.8019 13.6506 10.7321C13.6044 10.6623 13.5447 10.6025 13.475 10.5563L10.4062 8.5125C10.15 8.34375 9.80624 8.38125 9.59999 8.60625L8.42499 9.875C7.94999 9.59375 7.15624 9.0875 6.53124 8.4625C5.90624 7.8375 5.39999 7.04375 5.11874 6.575L6.38749 5.4C6.61249 5.19375 6.65624 4.85 6.48124 4.59375L4.43749 1.525C4.34374 1.3875 4.19999 1.2875 4.03749 1.25625C3.86874 1.225 3.69999 1.25625 3.56249 1.35625L1.51874 2.76875C1.35624 2.88125 1.25624 3.0625 1.24999 3.25625C1.23124 3.7 1.14999 7.65625 4.24374 10.7438C7.03124 13.5313 10.5187 13.7438 11.5062 13.7438V13.75Z" fill="#EA6301"/>
</svg>
