<svg width="15" height="15" viewBox="0 0 15 15" fill="none" xmlns="http://www.w3.org/2000/svg">
<path d="M2.5 12.5C2.15625 12.5 1.86208 12.3777 1.6175 12.1331C1.37292 11.8885 1.25042 11.5942 1.25 11.25V3.75C1.25 3.40625 1.3725 3.11208 1.6175 2.8675C1.8625 2.62292 2.15667 2.50042 2.5 2.5H12.5C12.8438 2.5 13.1381 2.6225 13.3831 2.8675C13.6281 3.1125 13.7504 3.40667 13.75 3.75V11.25C13.75 11.5938 13.6277 11.8881 13.3831 12.1331C13.1385 12.3781 12.8442 12.5004 12.5 12.5H2.5ZM7.5 8.125L12.5 5V3.75L7.5 6.875L2.5 3.75V5L7.5 8.125Z" fill="#EA6301"/>
</svg>
