<svg width="35" height="35" viewBox="0 0 35 35" fill="none" xmlns="http://www.w3.org/2000/svg">
<path d="M28.4375 5.46875H6.5625C4.75032 5.46875 3.28125 6.93782 3.28125 8.75V28.4375C3.28125 30.2497 4.75032 31.7188 6.5625 31.7188H28.4375C30.2497 31.7188 31.7188 30.2497 31.7188 28.4375V8.75C31.7188 6.93782 30.2497 5.46875 28.4375 5.46875Z" stroke="#EA6301" stroke-width="2" stroke-linejoin="round"/>
<path d="M20.2344 17.5C21.1405 17.5 21.875 16.7655 21.875 15.8594C21.875 14.9533 21.1405 14.2188 20.2344 14.2188C19.3283 14.2188 18.5938 14.9533 18.5938 15.8594C18.5938 16.7655 19.3283 17.5 20.2344 17.5Z" fill="#EA6301"/>
<path d="M25.7031 17.5C26.6092 17.5 27.3438 16.7655 27.3438 15.8594C27.3438 14.9533 26.6092 14.2188 25.7031 14.2188C24.797 14.2188 24.0625 14.9533 24.0625 15.8594C24.0625 16.7655 24.797 17.5 25.7031 17.5Z" fill="#EA6301"/>
<path d="M20.2344 22.9688C21.1405 22.9688 21.875 22.2342 21.875 21.3281C21.875 20.422 21.1405 19.6875 20.2344 19.6875C19.3283 19.6875 18.5938 20.422 18.5938 21.3281C18.5938 22.2342 19.3283 22.9688 20.2344 22.9688Z" fill="#EA6301"/>
<path d="M25.7031 22.9688C26.6092 22.9688 27.3438 22.2342 27.3438 21.3281C27.3438 20.422 26.6092 19.6875 25.7031 19.6875C24.797 19.6875 24.0625 20.422 24.0625 21.3281C24.0625 22.2342 24.797 22.9688 25.7031 22.9688Z" fill="#EA6301"/>
<path d="M9.29688 22.9688C10.203 22.9688 10.9375 22.2342 10.9375 21.3281C10.9375 20.422 10.203 19.6875 9.29688 19.6875C8.39078 19.6875 7.65625 20.422 7.65625 21.3281C7.65625 22.2342 8.39078 22.9688 9.29688 22.9688Z" fill="#EA6301"/>
<path d="M14.7656 22.9688C15.6717 22.9688 16.4062 22.2342 16.4062 21.3281C16.4062 20.422 15.6717 19.6875 14.7656 19.6875C13.8595 19.6875 13.125 20.422 13.125 21.3281C13.125 22.2342 13.8595 22.9688 14.7656 22.9688Z" fill="#EA6301"/>
<path d="M9.29688 28.4375C10.203 28.4375 10.9375 27.703 10.9375 26.7969C10.9375 25.8908 10.203 25.1562 9.29688 25.1562C8.39078 25.1562 7.65625 25.8908 7.65625 26.7969C7.65625 27.703 8.39078 28.4375 9.29688 28.4375Z" fill="#EA6301"/>
<path d="M14.7656 28.4375C15.6717 28.4375 16.4062 27.703 16.4062 26.7969C16.4062 25.8908 15.6717 25.1562 14.7656 25.1562C13.8595 25.1562 13.125 25.8908 13.125 26.7969C13.125 27.703 13.8595 28.4375 14.7656 28.4375Z" fill="#EA6301"/>
<path d="M20.2344 28.4375C21.1405 28.4375 21.875 27.703 21.875 26.7969C21.875 25.8908 21.1405 25.1562 20.2344 25.1562C19.3283 25.1562 18.5938 25.8908 18.5938 26.7969C18.5938 27.703 19.3283 28.4375 20.2344 28.4375Z" fill="#EA6301"/>
<path d="M8.75 3.28125V5.46875M26.25 3.28125V5.46875" stroke="#EA6301" stroke-linecap="round" stroke-linejoin="round"/>
<path d="M31.7188 10.9375H3.28125" stroke="#EA6301" stroke-width="2" stroke-linejoin="round"/>
</svg>
