<svg width="35" height="35" viewBox="0 0 35 35" fill="none" xmlns="http://www.w3.org/2000/svg">
<path d="M5.30029 8.39635C9.65269 6.13594 15.1907 4.05052 20.3576 2.77958C21.8691 2.40771 23.431 2.96698 24.2171 4.3101C24.7785 5.26969 25.4639 6.5851 26.1887 8.30448M21.1925 22.6938C21.2617 24.247 22.459 25.4042 24.0114 25.4661C24.8026 25.4982 25.7862 25.5208 26.9791 25.5208C28.1721 25.5208 29.1557 25.4982 29.9469 25.4661C31.5 25.4042 32.6965 24.247 32.7658 22.6938C32.7935 22.0617 32.8125 21.3055 32.8125 20.4167C32.8125 19.5278 32.7935 18.7717 32.7658 18.1395C32.6965 16.5864 31.4992 15.4292 29.9469 15.3672C28.9581 15.3292 27.9686 15.311 26.9791 15.3125C25.7862 15.3125 24.8026 15.3351 24.0114 15.3672C22.4583 15.4292 21.2617 16.5864 21.1925 18.1395C21.1602 18.8981 21.1447 19.6574 21.1458 20.4167C21.1458 21.3062 21.1648 22.0617 21.1925 22.6938Z" stroke="#0D0050" stroke-width="1.5" stroke-linecap="round" stroke-linejoin="round"/>
<path d="M29.804 15.3613C29.7585 14.1418 29.6872 12.9233 29.5903 11.7068C29.4386 9.84665 27.9942 8.44738 26.1326 8.31831C23.9889 8.16956 20.6814 8.02081 16.0417 8.02081C11.402 8.02081 8.09375 8.16956 5.95 8.31831C4.08917 8.44665 2.64469 9.84665 2.49302 11.7068C2.33625 13.6274 2.1875 16.4886 2.1875 20.4166C2.1875 24.3447 2.33625 27.2052 2.49302 29.1265C2.64469 30.9866 4.08917 32.3859 5.95073 32.515C8.09375 32.6637 11.402 32.8125 16.0417 32.8125C20.6814 32.8125 23.9896 32.6637 26.1326 32.515C27.9942 32.3866 29.4386 30.9866 29.5903 29.1265C29.6698 28.1546 29.7471 26.942 29.804 25.472M26.25 19.6875V21.1458" stroke="#0D0050" stroke-width="1.5" stroke-linecap="round" stroke-linejoin="round"/>
</svg>
