<svg width="28" height="28" viewBox="0 0 28 28" fill="none" xmlns="http://www.w3.org/2000/svg">
<path d="M13.8405 3.46014C16.3894 3.46014 18.454 5.52469 18.454 8.07365C18.454 10.6226 16.3894 12.6872 13.8405 12.6872C11.2915 12.6872 9.22697 10.6226 9.22697 8.07365C9.22697 5.52469 11.2915 3.46014 13.8405 3.46014ZM18.454 15.6167C18.454 16.8393 18.131 19.6882 15.9281 22.8715L14.9939 17.3007L16.078 15.1323C15.3629 15.0516 14.6132 14.9939 13.8405 14.9939C13.0677 14.9939 12.318 15.0516 11.6029 15.1323L12.6871 17.3007L11.7529 22.8715C9.54992 19.6882 9.22697 16.8393 9.22697 15.6167C6.4704 16.4241 4.61346 17.8773 4.61346 19.6074V24.2209H23.0675V19.6074C23.0675 17.8773 21.2221 16.4241 18.454 15.6167Z" fill="#EA6301"/>
</svg>
