<svg width="94" height="94" viewBox="0 0 94 94" fill="none" xmlns="http://www.w3.org/2000/svg">
<path opacity="0.85" d="M20.1953 43.1445C25.7721 43.1445 30.293 38.6237 30.293 33.0469C30.293 27.4701 25.7721 22.9492 20.1953 22.9492C14.6185 22.9492 10.0977 27.4701 10.0977 33.0469C10.0977 38.6237 14.6185 43.1445 20.1953 43.1445Z" fill="url(#paint0_linear_84_32)"/>
<path opacity="0.75" d="M24.6016 38.5547H15.7891C8.69134 38.5547 2.9375 44.3085 2.9375 51.4062V55.0781C2.9375 62.1758 8.69134 67.9297 15.7891 67.9297H24.6016C31.6993 67.9297 37.4531 62.1758 37.4531 55.0781V51.4062C37.4531 44.3085 31.6993 38.5547 24.6016 38.5547Z" fill="url(#paint1_linear_84_32)"/>
<path opacity="0.85" d="M73.8047 43.1445C79.3815 43.1445 83.9023 38.6237 83.9023 33.0469C83.9023 27.4701 79.3815 22.9492 73.8047 22.9492C68.2279 22.9492 63.707 27.4701 63.707 33.0469C63.707 38.6237 68.2279 43.1445 73.8047 43.1445Z" fill="url(#paint2_linear_84_32)"/>
<path opacity="0.75" d="M78.2109 38.5547H69.3984C62.3007 38.5547 56.5469 44.3085 56.5469 51.4062V55.0781C56.5469 62.1758 62.3007 67.9297 69.3984 67.9297H78.2109C85.3087 67.9297 91.0625 62.1758 91.0625 55.0781V51.4062C91.0625 44.3085 85.3087 38.5547 78.2109 38.5547Z" fill="url(#paint3_linear_84_32)"/>
<path d="M47 44.0625C55.1117 44.0625 61.6875 37.4867 61.6875 29.375C61.6875 21.2633 55.1117 14.6875 47 14.6875C38.8883 14.6875 32.3125 21.2633 32.3125 29.375C32.3125 37.4867 38.8883 44.0625 47 44.0625Z" fill="url(#paint4_linear_84_32)"/>
<path d="M53.9766 38.5547H40.0234C30.8978 38.5547 23.5 45.9525 23.5 55.0781V62.7891C23.5 71.9147 30.8978 79.3125 40.0234 79.3125H53.9766C63.1022 79.3125 70.5 71.9147 70.5 62.7891V55.0781C70.5 45.9525 63.1022 38.5547 53.9766 38.5547Z" fill="url(#paint5_linear_84_32)"/>
<defs>
<linearGradient id="paint0_linear_84_32" x1="10.0977" y1="43.1445" x2="30.293" y2="22.9492" gradientUnits="userSpaceOnUse">
<stop stop-color="#FFD400"/>
<stop offset="1" stop-color="#FF3B30"/>
</linearGradient>
<linearGradient id="paint1_linear_84_32" x1="2.9375" y1="67.9297" x2="31.9346" y2="33.8581" gradientUnits="userSpaceOnUse">
<stop stop-color="#FFD400"/>
<stop offset="1" stop-color="#FF3B30"/>
</linearGradient>
<linearGradient id="paint2_linear_84_32" x1="63.707" y1="43.1445" x2="83.9023" y2="22.9492" gradientUnits="userSpaceOnUse">
<stop stop-color="#FFD400"/>
<stop offset="1" stop-color="#FF3B30"/>
</linearGradient>
<linearGradient id="paint3_linear_84_32" x1="56.5469" y1="67.9297" x2="85.544" y2="33.8581" gradientUnits="userSpaceOnUse">
<stop stop-color="#FFD400"/>
<stop offset="1" stop-color="#FF3B30"/>
</linearGradient>
<linearGradient id="paint4_linear_84_32" x1="32.3125" y1="44.0625" x2="61.6875" y2="14.6875" gradientUnits="userSpaceOnUse">
<stop stop-color="#FFD400"/>
<stop offset="1" stop-color="#FF3B30"/>
</linearGradient>
<linearGradient id="paint5_linear_84_32" x1="23.5" y1="79.3125" x2="63.8475" y2="32.7857" gradientUnits="userSpaceOnUse">
<stop stop-color="#FFD400"/>
<stop offset="1" stop-color="#FF3B30"/>
</linearGradient>
</defs>
</svg>
