<svg width="28" height="28" viewBox="0 0 28 28" fill="none" xmlns="http://www.w3.org/2000/svg">
<mask id="mask0_1_175" style="mask-type:alpha" maskUnits="userSpaceOnUse" x="0" y="0" width="28" height="28">
<rect width="28" height="28" fill="#D9D9D9"/>
</mask>
<g mask="url(#mask0_1_175)">
<path d="M21 26.8334V23.3334H17.5V21.0001H21V17.5001H23.3333V21.0001H26.8333V23.3334H23.3333V26.8334H21ZM2.33332 23.3334V16.3334H1.16666V14.0001L2.33332 8.16675H19.8333L21 14.0001V16.3334H19.8333V19.8334H17.5V16.3334H12.8333V23.3334H2.33332ZM4.66666 21.0001H10.5V16.3334H4.66666V21.0001ZM2.33332 7.00008V4.66675H19.8333V7.00008H2.33332ZM3.55832 14.0001H18.6083L17.9083 10.5001H4.25832L3.55832 14.0001Z" fill="#EA6301"/>
</g>
</svg>
