<svg width="19" height="21" viewBox="0 0 19 21" fill="none" xmlns="http://www.w3.org/2000/svg">
<g clip-path="url(#clip0_314_28)">
<path d="M12.8903 5.3396C13.5088 5.73357 14.161 6.08287 14.7393 6.52915C16.4881 7.87837 17.6177 9.67005 18.2904 11.7636C18.6363 12.8393 18.845 13.9433 18.9295 15.0713C18.9436 15.2576 18.9761 15.4429 19 15.6287V17.4193C18.9751 17.5299 18.9447 17.64 18.9263 17.7517C18.7707 18.6764 18.3468 19.4279 17.5435 19.9385C17.0382 20.2594 16.4826 20.4545 15.9053 20.5875C14.7578 20.8517 13.5896 20.928 12.4177 20.9645C12.3488 20.9667 12.2805 20.988 12.2117 21.0005H6.75848C6.69018 20.988 6.62188 20.9667 6.55303 20.9645C5.39463 20.9237 4.24003 20.8496 3.10602 20.588C2.55908 20.4621 2.03056 20.2818 1.54595 19.9902C0.727974 19.4993 0.261795 18.7674 0.0986328 17.8318C0.143082 17.852 0.193495 17.865 0.231439 17.8945C0.874874 18.3909 1.61968 18.6617 2.38941 18.8748C3.34508 19.1385 4.31917 19.2965 5.30845 19.3608C6.09336 19.4121 6.87773 19.4775 7.66319 19.5036C8.38522 19.5281 9.10942 19.5167 9.832 19.5052C10.1318 19.5003 10.4348 19.4753 10.7297 19.4241C11.681 19.2589 12.5949 18.981 13.4427 18.5015C14.2 18.0732 14.8445 17.5223 15.3389 16.8014C15.8495 16.057 16.133 15.2304 16.2203 14.3313C16.2886 13.631 16.2761 12.933 16.1715 12.2399C16.0414 11.3778 15.7801 10.5577 15.3562 9.79157C14.9442 9.04667 14.4005 8.41347 13.7642 7.85766C13.6547 7.76175 13.5229 7.692 13.4015 7.60972C13.2796 7.49256 13.1766 7.33835 13.0329 7.26479C12.2252 6.85392 11.7303 6.19621 11.4723 5.3396C11.945 5.3396 12.4171 5.34014 12.8898 5.34069L12.8903 5.3396Z" fill="#C54709"/>
<path d="M13.4021 7.60817C13.5235 7.68991 13.6552 7.76021 13.7647 7.85611C14.4011 8.41193 14.9448 9.04512 15.3567 9.79002C15.7801 10.5562 16.0419 11.3763 16.172 12.2383C16.2766 12.932 16.2886 13.63 16.2208 14.3297C16.1335 15.2288 15.8495 16.0555 15.3394 16.7998C14.845 17.5208 14.2005 18.0717 13.4432 18.5C12.5955 18.9795 11.6815 19.2579 10.7302 19.4225C10.4348 19.4737 10.1323 19.4993 9.83254 19.5037C9.10942 19.5152 8.38576 19.5266 7.66373 19.5021C6.87827 19.4754 6.0939 19.4105 5.30899 19.3593C4.32026 19.295 3.34562 19.137 2.38996 18.8732C1.62023 18.6607 0.874884 18.3899 0.231992 17.8929C0.194048 17.8635 0.143635 17.851 0.0991858 17.8303C-0.0466301 17.0216 -0.000554459 16.208 0.0531102 15.3967C0.136588 14.1292 0.351247 12.8841 0.750208 11.6754C1.48579 9.4489 2.74827 7.60327 4.65905 6.22899C4.67911 6.21482 4.70079 6.20392 4.72193 6.19139C4.74416 6.17559 4.76584 6.15979 4.78806 6.14398L4.78427 6.14725C4.84552 6.14725 4.90949 6.1587 4.96857 6.14725C5.8142 5.97615 6.67337 5.94945 7.53038 5.93583C8.00144 5.9282 8.47358 5.97942 8.94572 6.00394C8.93759 6.03337 8.93217 6.06388 8.92024 6.09222C8.73431 6.54504 8.67252 7.01912 8.6904 7.50355C8.70233 7.83649 8.95276 8.08825 9.28397 8.12476C9.73876 8.07244 9.91385 7.87682 9.9171 7.42781C9.91819 7.28667 9.9274 7.14336 9.95125 7.00495C10.0174 6.62515 10.1312 6.26332 10.3941 5.96743C10.6256 6.65403 11.0034 7.24798 11.5411 7.73078C11.8767 8.03212 12.2469 8.29041 12.6784 8.43754C12.9782 8.53944 13.337 8.32365 13.3988 8.0185C13.4004 7.88172 13.4021 7.74495 13.4037 7.60763L13.4021 7.60817ZM6.64464 14.7346C6.79751 14.921 6.94983 15.1079 7.10377 15.2931C7.83773 16.1781 8.57332 17.0625 9.30619 17.9485C9.38696 18.0461 9.47532 18.0918 9.60704 18.0902C10.2619 18.0831 10.9167 18.0869 11.5715 18.0869C11.6311 18.0869 11.6907 18.0869 11.7504 18.0869C11.7677 18.0651 11.7845 18.0433 11.8019 18.0215C10.9687 16.947 10.0884 15.9083 9.2341 14.8283C9.31703 14.7962 9.38154 14.7771 9.44117 14.7477C9.74418 14.5967 10.0575 14.4621 10.3437 14.2834C10.521 14.1722 10.6549 13.9924 10.8083 13.8437C11.1763 13.4873 11.2831 13.0056 11.4132 12.526H12.3244C12.4393 12.0809 12.551 11.6482 12.6692 11.1894H11.4452C11.3232 10.8406 11.2099 10.5164 11.0912 10.1764H12.332C12.4464 9.72899 12.5564 9.29687 12.6703 8.85222H6.73571C6.60345 9.41784 6.47335 9.97529 6.33621 10.5611C6.43107 10.5611 6.4972 10.56 6.56388 10.5611C7.11895 10.5709 7.67457 10.5714 8.22965 10.5954C8.62915 10.6123 8.99125 10.8755 9.08123 11.1975H6.67337C6.55791 11.6476 6.44733 12.077 6.32862 12.5391H9.12948C9.04546 12.9925 8.63566 13.3418 8.17165 13.3538C7.68975 13.3663 7.20785 13.3592 6.72541 13.362C6.65982 13.362 6.59369 13.3696 6.52756 13.3739C6.52756 13.781 6.52268 14.1695 6.53298 14.5575C6.5346 14.618 6.60561 14.6763 6.6441 14.7357L6.64464 14.7346Z" fill="#D05900"/>
<path d="M6.60613 0.962376C6.50205 0.267062 6.91674 -0.126913 7.60137 0.036562C7.99545 0.130288 8.37707 0.27687 8.77169 0.367872C9.52788 0.542245 10.264 0.414734 10.9866 0.169522C11.0739 0.140096 11.1611 0.111216 11.2479 0.0817901C11.2576 0.088874 11.2668 0.101407 11.2771 0.103042C11.6571 0.14827 11.971 0.423453 11.8853 0.979813C11.7943 1.56723 11.5595 2.09417 11.2446 2.5835C11.0668 2.86032 10.8717 3.15567 10.6131 3.34366C9.91545 3.85044 9.13 3.88422 8.33262 3.60413C8.03285 3.49897 7.75152 3.34203 7.46151 3.20852C7.12164 2.63418 6.87012 2.02169 6.68094 1.38251C6.656 1.24246 6.63052 1.10296 6.60559 0.962921L6.60613 0.962376Z" fill="#FE7900"/>
<path d="M5.45422 4.54849C5.5621 4.21174 5.76212 4.08531 6.15945 4.10057C6.37194 4.09785 6.58498 4.09458 6.79801 4.09185C7.17962 4.09349 7.56124 4.09512 7.94285 4.09621C8.98308 4.09621 10.0233 4.09621 11.0641 4.09621C11.4457 4.09458 11.8273 4.09294 12.2089 4.09131C12.4149 4.09403 12.6204 4.09676 12.8263 4.09948C13.2443 4.08477 13.4416 4.20683 13.5516 4.54849C13.3565 4.83458 13.0876 4.92994 12.7445 4.92885C10.5838 4.91904 8.42313 4.91904 6.26245 4.92885C5.91878 4.93048 5.65045 4.83349 5.45477 4.54849H5.45422Z" fill="#FEB706"/>
<path d="M11.0636 4.09615C10.0234 4.09615 8.98314 4.09615 7.94238 4.09615C7.90823 4.02095 7.8795 3.94248 7.83993 3.87056C7.71633 3.64877 7.58841 3.42917 7.46265 3.20848C7.75265 3.34199 8.03399 3.49892 8.33375 3.60409C9.13113 3.88418 9.91658 3.85094 10.6142 3.34362C10.8728 3.15563 11.0679 2.85974 11.2457 2.58346C11.5607 2.09413 11.7954 1.56719 11.8865 0.979775C11.9726 0.423415 11.6582 0.148232 11.2783 0.103004C11.268 0.101914 11.2587 0.0893813 11.249 0.0817524C11.4539 0.0577761 11.6637 -0.00597912 11.8626 0.019632C12.2225 0.0659498 12.4301 0.3553 12.4323 0.732928C12.4323 0.812485 12.4323 0.892588 12.4323 0.972146C12.4085 1.10837 12.3846 1.2446 12.3608 1.38083C12.3445 1.41298 12.3234 1.4435 12.3125 1.47728C12.0594 2.27395 11.7092 3.0243 11.2533 3.72506C11.178 3.84059 11.127 3.97191 11.0647 4.09615H11.0636Z" fill="#F16E01"/>
<path d="M5.45423 4.54834C5.64991 4.83333 5.9177 4.93033 6.26191 4.92869C8.42259 4.91888 10.5833 4.91888 12.744 4.92869C13.0871 4.93033 13.3565 4.83497 13.5511 4.54834C13.6573 4.91398 13.4248 5.26708 13.0372 5.32812C12.989 5.33574 12.9396 5.33574 12.8903 5.33956C12.4176 5.33956 11.9455 5.33901 11.4728 5.33847C11.224 5.33683 10.9746 5.33574 10.7258 5.33411C10.5535 5.33411 10.3811 5.33411 10.2087 5.33411C10.1588 5.33411 10.1084 5.33411 10.0585 5.33411C9.80974 5.3352 9.56039 5.33574 9.31158 5.33683C8.24696 5.33738 7.18234 5.33792 6.11718 5.33847C5.64016 5.30196 5.38268 5.03223 5.42658 4.61427C5.42875 4.59139 5.44447 4.57014 5.45423 4.54834Z" fill="#FE9701"/>
<path d="M6.11718 5.33855C7.1818 5.338 8.24642 5.33746 9.31158 5.33691C9.18962 5.55979 9.06711 5.78211 8.94514 6.00498C8.47354 5.98046 8.0014 5.92924 7.52981 5.93687C6.67225 5.95049 5.81362 5.97719 4.96799 6.1483C4.90891 6.16028 4.84549 6.14884 4.78369 6.1483C5.17073 5.9118 5.55776 5.67585 5.9448 5.4399C6.00172 5.40503 6.05972 5.37233 6.11772 5.33855H6.11718Z" fill="#C64709"/>
<path d="M6.79758 4.09111C6.58455 4.09384 6.37152 4.09711 6.15903 4.09983C6.11675 4.0497 6.07989 3.99248 6.0311 3.94998C5.68689 3.65136 5.37845 3.32441 5.18547 2.90319C5.057 2.62202 4.98599 2.32885 5.03424 2.0177C5.14265 1.31749 5.71887 0.874469 6.42193 0.946943C6.48318 0.953482 6.54444 0.957297 6.60569 0.962201C6.63063 1.10224 6.6561 1.24174 6.68104 1.38179C6.60135 1.37743 6.5195 1.38179 6.44199 1.36653C6.15523 1.31095 5.90263 1.38506 5.69176 1.57796C5.39146 1.85314 5.3443 2.27872 5.54107 2.70539C5.78121 3.22469 6.19426 3.57889 6.64309 3.90366C6.70652 3.94943 6.74609 4.0279 6.79704 4.09111H6.79758Z" fill="#EC6704"/>
<path d="M12.3597 1.38038C12.3835 1.24415 12.4074 1.10792 12.4312 0.971688C13.5116 0.791865 14.2488 1.66155 13.8981 2.70616C13.724 3.22383 13.3695 3.60854 12.9673 3.95674C12.9169 4.00033 12.873 4.0521 12.8258 4.10005C12.6199 4.09733 12.4139 4.0946 12.2079 4.09188C12.2583 4.02867 12.2979 3.94966 12.3613 3.90443C12.8199 3.5802 13.2351 3.21347 13.4682 2.68763C13.7289 2.10184 13.5506 1.47519 12.815 1.35803C12.6676 1.3346 12.5109 1.37166 12.3586 1.38092L12.3597 1.38038Z" fill="#EC6704"/>
<path d="M10.7258 5.33423C10.9746 5.33586 11.224 5.33695 11.4728 5.33859C11.7303 6.1952 12.2252 6.85237 13.0334 7.26378C13.1776 7.3368 13.2801 7.49155 13.402 7.60871C13.4004 7.74548 13.3988 7.88226 13.3971 8.01958C13.1673 8.04628 12.9608 7.98307 12.7618 7.86972C12.2653 7.58746 11.8078 7.25833 11.4609 6.79515C11.1297 6.35268 10.8516 5.88241 10.7258 5.33477V5.33423Z" fill="#FEA800"/>
<path d="M6.64471 14.7345C6.60568 14.6751 6.53521 14.6168 6.53358 14.5564C6.52328 14.1684 6.52816 13.7798 6.52816 13.3728C6.59429 13.3684 6.65988 13.3613 6.72602 13.3608C7.20792 13.3581 7.69035 13.3652 8.17225 13.3526C8.63626 13.3401 9.04607 12.9914 9.13009 12.538H6.32922C6.44794 12.0753 6.55798 11.6465 6.67398 11.1964H9.08184C8.99186 10.8749 8.62976 10.6117 8.23025 10.5943C7.67572 10.5708 7.1201 10.5703 6.56448 10.5599C6.49835 10.5588 6.43167 10.5599 6.33681 10.5599C6.47396 9.97415 6.60405 9.41724 6.73632 8.85107H12.6709C12.557 9.29573 12.447 9.72785 12.3326 10.1752H11.0918C11.2105 10.5152 11.3238 10.8389 11.4458 11.1882H12.6698C12.5516 11.647 12.44 12.0797 12.325 12.5249H11.4138C11.2837 13.0044 11.1764 13.4861 10.8089 13.8425C10.7666 13.8485 10.7238 13.8507 10.6826 13.8605C9.83694 14.0648 8.99349 14.2817 8.14461 14.4713C7.6497 14.5814 7.14504 14.6479 6.64471 14.7345Z" fill="#FEDA08"/>
<path d="M6.64465 14.7346C7.14498 14.6485 7.64965 14.582 8.14455 14.4714C8.99343 14.2823 9.83689 14.0654 10.6825 13.8605C10.7237 13.8507 10.7665 13.8485 10.8088 13.8425C10.6554 13.9913 10.521 14.1717 10.3443 14.2823C10.0586 14.4616 9.74474 14.5956 9.44172 14.7465C9.38209 14.776 9.31759 14.7956 9.23465 14.8272C10.089 15.9078 10.9693 16.9458 11.8024 18.0204C11.7851 18.0422 11.7683 18.064 11.7509 18.0858C11.6913 18.0858 11.6317 18.0858 11.572 18.0858C10.9172 18.0858 10.2624 18.082 9.6076 18.0891C9.47533 18.0907 9.38752 18.0449 9.30675 17.9474C8.57387 17.0614 7.83883 16.177 7.10433 15.292C6.95038 15.1067 6.79806 14.9198 6.6452 14.7335L6.64465 14.7346Z" fill="#FEB706"/>
<path d="M10.7259 5.33423C10.8517 5.88187 11.1303 6.35268 11.461 6.7946C11.8079 7.25778 12.2654 7.58691 12.7619 7.86918C12.9609 7.98198 13.1679 8.04519 13.3972 8.01903C13.3354 8.32419 12.9766 8.54052 12.6768 8.43807C12.2453 8.29095 11.8751 8.03266 11.5396 7.73132C11.0018 7.24907 10.6246 6.65511 10.3926 5.96797C10.3313 5.75654 10.27 5.54511 10.2083 5.33423C10.3806 5.33423 10.553 5.33423 10.7254 5.33423H10.7259Z" fill="#FB8300"/>
<path d="M10.2087 5.3341C10.27 5.54553 10.3312 5.75695 10.393 5.96784C10.1301 6.26373 10.0163 6.62555 9.95016 7.00536C9.92576 7.14431 9.91655 7.28708 9.91601 7.42821C9.91275 7.87723 9.73821 8.0734 9.28287 8.12516C9.14302 7.75516 9.20481 7.38026 9.26444 7.00754C9.36635 6.37216 9.66394 5.82888 10.0586 5.33301C10.1084 5.33301 10.1589 5.33301 10.2087 5.33301V5.3341Z" fill="#FEA900"/>
<path d="M10.0586 5.33423C9.66397 5.8301 9.36638 6.37339 9.26447 7.00876C9.20484 7.38148 9.14305 7.75584 9.2829 8.12639C8.9517 8.08933 8.7018 7.83758 8.68934 7.50518C8.67199 7.0202 8.73324 6.54613 8.91917 6.09384C8.93055 6.06551 8.93598 6.03499 8.94465 6.00557C9.06716 5.7827 9.18912 5.56037 9.31109 5.3375C9.5599 5.33641 9.80925 5.33586 10.0581 5.33477L10.0586 5.33423Z" fill="#FB8300"/>
<path d="M6.79754 4.09119C6.74713 4.02798 6.70701 3.94951 6.64359 3.90374C6.19476 3.57897 5.7817 3.22477 5.54157 2.70547C5.34426 2.2788 5.39142 1.85322 5.69226 1.57803C5.90313 1.38513 6.15573 1.31103 6.44248 1.36661C6.52054 1.38186 6.60185 1.37751 6.68154 1.38186C6.87072 2.0216 7.12224 2.63408 7.46211 3.20788C7.58841 3.42857 7.7158 3.64817 7.83939 3.86995C7.8795 3.94188 7.90823 4.02035 7.94184 4.09555C7.56023 4.09391 7.17861 4.09228 6.797 4.09119H6.79754Z" fill="#D55600"/>
<path d="M12.3596 1.38038C12.5119 1.37112 12.6686 1.33407 12.816 1.3575C13.5516 1.47465 13.7294 2.10131 13.4692 2.6871C13.2356 3.2124 12.8209 3.57913 12.3623 3.9039C12.2989 3.94858 12.2593 4.02814 12.2089 4.09135C11.8273 4.09298 11.4457 4.09462 11.0641 4.09571C11.1264 3.97147 11.1779 3.84014 11.2527 3.72462C11.7086 3.02385 12.0588 2.2735 12.3119 1.47683C12.3228 1.44305 12.3439 1.41253 12.3602 1.38038H12.3596Z" fill="#D55600"/>
</g>
<defs>
<clipPath id="clip0_314_28">
<rect width="19" height="21" fill="white"/>
</clipPath>
</defs>
</svg>
